# xmcd
#
# Track frame offsets:
#	150
#	18140
#	36632
#
# Disc length: 738 seconds
# Revision: 0
# Processed by: cddbd v1.5.2PL0 Copyright (c) Steve Scherf et al.
# Submitted via: dBpowerAMP V12.0
#
DISCID=1d02e003
DTITLE=Worlds Apart - Je Serai Là
DYEAR=1997
DGENRE=Rock/Pop
TTITLE0=Je Serai Là
TTITLE1=When It's Christmas Time
TTITLE2=Why Did We Say Goodbye
EXTD=
EXTT0=
EXTT1=
EXTT2=
PLAYORDER=
